<svg width="129" height="129" viewBox="0 0 129 129" fill="none" xmlns="http://www.w3.org/2000/svg">
<g id="Group">
<g id="Group_2">
<path id="Vector" d="M64.334 128.931C29.001 128.931 0.25499 100.185 0.25499 64.8521C0.25499 29.5191 29.001 0.773071 64.334 0.773071C99.667 0.773071 128.413 29.5191 128.413 64.8521C128.414 100.185 99.668 128.931 64.334 128.931ZM64.334 2.75006C30.091 2.75006 2.23198 30.6091 2.23198 64.8521C2.23198 99.095 30.091 126.954 64.334 126.954C98.577 126.954 126.436 99.095 126.436 64.8521C126.437 30.6091 98.577 2.75006 64.334 2.75006Z" fill="url(#paint0_linear_1_7)"/>
<path id="Vector_2" d="M59.471 113.015C36.698 110.743 18.492 92.5691 16.18 69.8011L17.666 69.649C19.907 91.713 37.551 109.326 59.619 111.529L59.471 113.015Z" fill="#7EDEF9"/>
<path id="Vector_3" d="M110.742 57.9581C107.479 35.8041 88.862 18.9951 66.475 17.9891L66.542 16.498C89.643 17.535 108.853 34.8811 112.22 57.7411L110.742 57.9581Z" fill="#7EDEF9"/>
<path id="Vector_4" d="M64.334 92.9201C48.858 92.9201 36.266 80.3291 36.266 64.8521C36.266 49.3751 48.857 36.7831 64.334 36.7831C79.811 36.7831 92.403 49.3741 92.403 64.8521C92.403 80.3281 79.812 92.9201 64.334 92.9201ZM64.334 41.7281C51.583 41.7281 41.211 52.1011 41.211 64.8521C41.211 77.6031 51.583 87.9751 64.334 87.9751C77.085 87.9751 87.458 77.6031 87.458 64.8521C87.458 52.1021 77.085 41.7281 64.334 41.7281Z" fill="#7EDEF9"/>
<g id="Inner spinners">
<path id="Vector_5" d="M53.052 106.197L51.635 105.757C41.017 102.464 32.203 95.2741 26.817 85.5111L26.1 84.2111L37.357 78.0011L38.073 79.3011C41.845 86.1391 48.013 91.1741 55.443 93.4801L56.859 93.9201L53.052 106.197ZM30.155 85.3631C34.963 93.3721 42.318 99.3761 51.106 102.458L53.158 95.8411C46.083 93.2971 40.151 88.4541 36.222 82.0161L30.155 85.3631Z" fill="url(#paint1_linear_1_7)"/>
<path id="Vector_6" d="M67.859 107.556L66.371 94.7881L67.844 94.6161C82.928 92.8601 94.302 80.0631 94.302 64.8521C94.302 63.4841 94.209 62.1121 94.027 60.7731L93.826 59.3031L106.566 57.5731L106.765 59.0421C107.025 60.9591 107.157 62.9141 107.157 64.8531C107.157 86.5901 90.895 104.875 69.332 107.386L67.859 107.556ZM69.657 97.3591L70.458 104.24C89.79 101.264 104.19 84.5871 104.19 64.8531C104.19 63.5421 104.125 62.2231 103.997 60.9151L97.132 61.8481C97.222 62.8441 97.267 63.8501 97.267 64.8531C97.268 81.0711 85.499 94.7921 69.657 97.3591Z" fill="url(#paint2_linear_1_7)"/>
<path id="Vector_7" d="M92.331 54.0321L91.727 52.6781C88.322 45.0321 81.83 39.1161 73.915 36.4471L72.51 35.9741L76.616 23.7931L78.022 24.2671C89.333 28.0801 98.608 36.5301 103.469 47.4481L104.072 48.8031L92.331 54.0321ZM76.259 34.1421C83.863 37.0971 90.144 42.8201 93.804 50.1291L100.132 47.3111C95.681 38.2431 87.903 31.1571 78.472 27.5771L76.259 34.1421Z" fill="url(#paint3_linear_1_7)"/>
<path id="Vector_8" d="M34.367 66.3351H21.513V64.8521C21.513 47.6041 31.778 32.1171 47.664 25.3981L49.03 24.8201L54.038 36.6591L52.672 37.2371C41.552 41.9411 34.367 52.7801 34.367 64.8531V66.3351ZM24.507 63.369H31.435C31.977 51.195 39.163 40.3551 50.164 35.1121L47.465 28.731C33.898 35.068 25.057 48.407 24.507 63.369Z" fill="url(#paint4_linear_1_7)"/>
</g>
</g>
<g id="Group_3">
<g id="Outer spinners">
<g id="Group_4">
<path id="Vector_9" d="M44.1587 9.84939L41.3805 10.9493L45.7229 21.9181L48.5012 20.8182L44.1587 9.84939Z" fill="#7EDEF9"/>
<path id="Vector_10" d="M37.4384 12.7887L34.82 14.2283L40.5038 24.566L43.1222 23.1264L37.4384 12.7887Z" fill="#7EDEF9"/>
<path id="Vector_11" d="M31.1128 16.579L28.6955 18.3354L35.6298 27.8792L38.0471 26.1228L31.1128 16.579Z" fill="#7EDEF9"/>
<path id="Vector_12" d="M25.3501 21.1332L23.1718 23.1788L31.248 31.7788L33.4263 29.7332L25.3501 21.1332Z" fill="#7EDEF9"/>
<path id="Vector_13" d="M20.1459 26.3424L18.2407 28.6454L27.3303 36.1649L29.2355 33.8618L20.1459 26.3424Z" fill="#7EDEF9"/>
<path id="Vector_14" d="M15.6612 32.2031L14.0596 34.7267L24.019 41.0471L25.6205 38.5234L15.6612 32.2031Z" fill="#7EDEF9"/>
<path id="Vector_15" d="M11.9632 38.5791L10.6905 41.2835L21.3645 46.3067L22.6372 43.6022L11.9632 38.5791Z" fill="#7EDEF9"/>
<path id="Vector_16" d="M84.51 119.852L87.2891 118.752L82.9466 107.783L80.1675 108.883L84.51 119.852Z" fill="#7EDEF9"/>
<path id="Vector_17" d="M91.2333 116.906L93.8526 115.465L88.1688 105.128L85.5495 106.568L91.2333 116.906Z" fill="#7EDEF9"/>
<path id="Vector_18" d="M97.5566 113.127L99.9747 111.37L93.0404 101.826L90.6223 103.583L97.5566 113.127Z" fill="#7EDEF9"/>
<path id="Vector_19" d="M103.355 108.553L105.533 106.508L97.4577 97.9079L95.2795 99.9532L103.355 108.553Z" fill="#7EDEF9"/>
<path id="Vector_20" d="M108.528 103.354L110.433 101.051L101.344 93.5314L99.4387 95.8345L108.528 103.354Z" fill="#7EDEF9"/>
<path id="Vector_21" d="M113.012 97.4968L114.613 94.9741L104.653 88.6532L103.052 91.176L113.012 97.4968Z" fill="#7EDEF9"/>
<path id="Vector_22" d="M116.709 91.1428L117.981 88.4393L107.307 83.4161L106.035 86.1197L116.709 91.1428Z" fill="#7EDEF9"/>
</g>
<g id="Group_5">
<path id="Vector_23" d="M68.651 10.23C68.651 12.014 67.205 13.46 65.421 13.46C63.637 13.46 62.191 12.014 62.191 10.23C62.191 8.44598 63.637 7 65.421 7C67.205 7 68.651 8.44598 68.651 10.23Z" fill="#7EDEF9"/>
<path id="Vector_24" d="M10.23 62.191C12.014 62.191 13.46 63.637 13.46 65.421C13.46 67.205 12.014 68.651 10.23 68.651C8.44601 68.651 7 67.205 7 65.421C7 63.637 8.44601 62.191 10.23 62.191Z" fill="#7EDEF9"/>
<path id="Vector_25" d="M11.275 76.586C12.998 76.124 14.769 77.147 15.231 78.87C15.693 80.593 14.67 82.364 12.947 82.826C11.224 83.288 9.453 82.265 8.991 80.542C8.529 78.818 9.55202 77.047 11.275 76.586Z" fill="#7EDEF9"/>
<path id="Vector_26" d="M16.009 90.219C17.554 89.327 19.529 89.856 20.421 91.401C21.313 92.946 20.784 94.921 19.239 95.813C17.694 96.705 15.719 96.176 14.827 94.631C13.935 93.087 14.465 91.111 16.009 90.219Z" fill="#7EDEF9"/>
<path id="Vector_27" d="M24.111 102.163C25.372 100.902 27.417 100.902 28.679 102.163C29.94 103.424 29.94 105.469 28.679 106.731C27.418 107.992 25.373 107.992 24.111 106.731C22.85 105.469 22.85 103.425 24.111 102.163Z" fill="#7EDEF9"/>
<path id="Vector_28" d="M35.029 111.603C35.921 110.058 37.896 109.529 39.441 110.421C40.986 111.313 41.515 113.288 40.623 114.833C39.731 116.378 37.756 116.907 36.211 116.015C34.666 115.123 34.137 113.148 35.029 111.603Z" fill="#7EDEF9"/>
<path id="Vector_29" d="M48.017 117.896C48.479 116.173 50.25 115.15 51.973 115.612C53.696 116.074 54.719 117.845 54.257 119.568C53.795 121.291 52.024 122.314 50.301 121.852C48.578 121.39 47.555 119.619 48.017 117.896Z" fill="#7EDEF9"/>
<path id="Vector_30" d="M119.568 54.256C117.845 54.718 116.074 53.695 115.612 51.972C115.15 50.249 116.173 48.478 117.896 48.016C119.619 47.554 121.39 48.577 121.852 50.3C122.314 52.023 121.291 53.794 119.568 54.256Z" fill="#7EDEF9"/>
<path id="Vector_31" d="M114.833 40.622C113.288 41.514 111.313 40.985 110.421 39.44C109.529 37.895 110.058 35.92 111.603 35.028C113.148 34.136 115.123 34.665 116.015 36.21C116.907 37.755 116.378 39.731 114.833 40.622Z" fill="#7EDEF9"/>
<path id="Vector_32" d="M106.732 28.679C105.471 29.94 103.426 29.94 102.164 28.679C100.902 27.418 100.903 25.373 102.164 24.111C103.425 22.85 105.47 22.85 106.732 24.111C107.993 25.372 107.993 27.417 106.732 28.679Z" fill="#7EDEF9"/>
<path id="Vector_33" d="M95.814 19.239C94.922 20.784 92.947 21.313 91.402 20.421C89.857 19.529 89.328 17.554 90.22 16.009C91.112 14.464 93.087 13.935 94.632 14.827C96.177 15.718 96.706 17.694 95.814 19.239Z" fill="#7EDEF9"/>
<path id="Vector_34" d="M82.826 12.946C82.364 14.669 80.593 15.692 78.87 15.23C77.147 14.768 76.125 12.997 76.586 11.274C77.048 9.55098 78.819 8.52798 80.542 8.98998C82.265 9.45198 83.288 11.223 82.826 12.946Z" fill="#7EDEF9"/>
</g>
</g>
</g>
</g>
<defs>
<linearGradient id="paint0_linear_1_7" x1="26.4258" y1="120.948" x2="97.4208" y2="15.8922" gradientUnits="userSpaceOnUse">
<stop stop-color="#63A4FB"/>
<stop offset="1" stop-color="#8FFFFF"/>
</linearGradient>
<linearGradient id="paint1_linear_1_7" x1="23.5108" y1="118.978" x2="94.5058" y2="13.9221" gradientUnits="userSpaceOnUse">
<stop stop-color="#63A4FB"/>
<stop offset="1" stop-color="#8FFFFF"/>
</linearGradient>
<linearGradient id="paint2_linear_1_7" x1="51.8131" y1="138.104" x2="122.808" y2="33.0483" gradientUnits="userSpaceOnUse">
<stop stop-color="#63A4FB"/>
<stop offset="1" stop-color="#8FFFFF"/>
</linearGradient>
<linearGradient id="paint3_linear_1_7" x1="31.0345" y1="124.063" x2="102.03" y2="19.0068" gradientUnits="userSpaceOnUse">
<stop stop-color="#63A4FB"/>
<stop offset="1" stop-color="#8FFFFF"/>
</linearGradient>
<linearGradient id="paint4_linear_1_7" x1="-1.26371" y1="102.236" x2="69.7312" y2="-2.81973" gradientUnits="userSpaceOnUse">
<stop stop-color="#63A4FB"/>
<stop offset="1" stop-color="#8FFFFF"/>
</linearGradient>
</defs>
</svg>
