<svg width="127" height="127" viewBox="0 0 127 127" fill="none" xmlns="http://www.w3.org/2000/svg">
<g id="Group">
<path id="Vector" d="M63.904 123.078L63.587 123.077L63.597 122.033L63.9 122.034L64.286 122.032L64.294 123.076L63.904 123.078ZM62.886 123.069L62.182 123.054L62.213 122.01L62.904 122.025L62.886 123.069ZM64.997 123.068L64.976 122.024L65.667 122.007L65.698 123.051L64.997 123.068ZM61.479 123.03L60.777 122.998L60.829 121.954L61.521 121.986L61.479 123.03ZM66.401 123.027L66.353 121.983L67.046 121.95L67.102 122.994L66.401 123.027ZM60.074 122.956L59.371 122.908L59.45 121.866L60.139 121.914L60.074 122.956ZM67.805 122.953L67.736 121.911L68.425 121.861L68.508 122.903L67.805 122.953ZM58.67 122.851L57.968 122.787L58.072 121.747L58.76 121.811L58.67 122.851ZM69.21 122.845L69.116 121.805L69.805 121.739L69.909 122.779L69.21 122.845ZM57.269 122.712L56.572 122.63L56.697 121.593L57.386 121.673L57.269 122.712ZM70.647 122.699L70.49 121.665L71.177 121.583L71.307 122.619L70.647 122.699ZM55.874 122.54L55.176 122.442L55.328 121.407L56.012 121.503L55.874 122.54ZM72.006 122.531L71.864 121.496L72.547 121.398L72.702 122.431L72.006 122.531ZM54.481 122.336L53.786 122.221L53.963 121.191L54.645 121.303L54.481 122.336ZM73.4 122.323L73.231 121.292L73.914 121.178L74.091 122.207L73.4 122.323ZM53.092 122.097L52.4 121.965L52.602 120.94L53.283 121.07L53.092 122.097ZM74.785 122.083L74.595 121.056L75.273 120.925L75.477 121.95L74.785 122.083ZM51.711 121.826L51.025 121.678L51.25 120.657L51.927 120.803L51.711 121.826ZM76.164 121.811L75.949 120.788L76.625 120.642L76.853 121.661L76.164 121.811ZM50.337 121.522C50.109 121.469 49.879 121.414 49.653 121.357L49.904 120.344L50.575 120.505L50.337 121.522ZM77.54 121.505L77.298 120.487L77.973 120.325L78.223 121.339L77.54 121.505ZM48.97 121.185L48.291 121.005L48.564 119.997L49.233 120.174L48.97 121.185ZM78.905 121.166L78.642 120.154L79.31 119.976L79.586 120.984L78.905 121.166ZM47.614 120.818L46.937 120.621L47.235 119.619L47.898 119.812L47.614 120.818ZM80.263 120.795L79.975 119.791L80.64 119.596L80.937 120.598L80.263 120.795ZM46.263 120.415C46.037 120.345 45.812 120.274 45.588 120.201L45.911 119.207C46.131 119.278 46.35 119.349 46.572 119.417L46.263 120.415ZM81.61 120.393L81.301 119.395C81.521 119.327 81.741 119.257 81.959 119.185L82.283 120.179C82.059 120.25 81.835 120.323 81.61 120.393ZM44.918 119.98L44.25 119.751L44.596 118.764L45.253 118.989L44.918 119.98ZM82.952 119.956L82.616 118.966L83.271 118.74L83.616 119.727L82.952 119.956ZM43.586 119.512C43.363 119.431 43.142 119.349 42.922 119.265L43.293 118.288C43.508 118.37 43.725 118.45 43.942 118.529L43.586 119.512ZM84.276 119.488L83.923 118.505C84.139 118.427 84.354 118.347 84.567 118.265L84.939 119.242C84.719 119.326 84.498 119.409 84.276 119.488ZM42.262 119.012L41.607 118.752L41.999 117.783L42.644 118.041L42.262 119.012ZM85.595 118.99L85.213 118.019L85.855 117.762L86.248 118.729L85.595 118.99ZM40.953 118.482L40.303 118.205L40.72 117.247L41.358 117.519L40.953 118.482ZM86.895 118.461L86.492 117.497C86.704 117.409 86.915 117.319 87.124 117.227L87.541 118.185C87.326 118.278 87.111 118.37 86.895 118.461ZM39.659 117.921L39.016 117.628L39.454 116.68L40.086 116.967L39.659 117.921ZM88.182 117.902L87.754 116.95L88.382 116.664L88.82 117.612L88.182 117.902ZM38.376 117.328L37.742 117.021L38.203 116.082L38.828 116.385L38.376 117.328ZM89.454 117.314L89.005 116.371L89.624 116.071L90.087 117.008L89.454 117.314ZM37.11 116.706L36.483 116.384L36.965 115.457L37.582 115.774L37.11 116.706ZM90.713 116.695L90.241 115.762L90.853 115.448L91.337 116.373L90.713 116.695ZM35.858 116.052L35.238 115.714L35.745 114.8L36.353 115.132L35.858 116.052ZM91.955 116.046L91.465 115.123C91.667 115.016 91.867 114.906 92.067 114.796L92.574 115.71C92.369 115.823 92.163 115.935 91.955 116.046ZM34.624 115.372L34.013 115.02L34.541 114.118L35.141 114.464L34.624 115.372ZM93.185 115.367L92.672 114.455C92.872 114.344 93.069 114.228 93.268 114.113L93.794 115.015C93.592 115.135 93.388 115.252 93.185 115.367ZM33.407 114.662L32.804 114.295L33.351 113.404L33.944 113.765L33.407 114.662ZM94.398 114.658L93.863 113.762L94.45 113.405L94.999 114.294C94.798 114.417 94.598 114.539 94.398 114.658ZM32.206 113.922L31.614 113.542L32.182 112.665L32.766 113.039L32.206 113.922ZM95.598 113.921L95.034 113.042L95.617 112.668L96.187 113.543L95.598 113.921ZM96.772 113.159L96.192 112.29L96.766 111.903L97.353 112.767L96.772 113.159ZM31.024 113.154L30.441 112.761L31.028 111.897L31.603 112.285L31.024 113.154ZM97.932 112.366L97.333 111.51L97.895 111.111L98.505 111.959L97.932 112.366ZM29.861 112.36C29.668 112.225 29.475 112.089 29.285 111.951L29.897 111.104C30.083 111.238 30.27 111.372 30.459 111.503L29.861 112.36ZM99.073 111.546L98.455 110.703C98.64 110.568 98.825 110.429 99.008 110.291L99.638 111.124C99.45 111.267 99.262 111.407 99.073 111.546ZM28.715 111.537L28.152 111.117L28.78 110.282L29.336 110.697L28.715 111.537ZM100.198 110.698L99.555 109.875L100.102 109.447L100.749 110.267L100.198 110.698ZM27.593 110.689C27.406 110.545 27.221 110.4 27.036 110.253L27.689 109.437C27.867 109.58 28.049 109.721 28.23 109.861L27.593 110.689ZM101.297 109.826L100.641 109.014C100.819 108.869 100.997 108.723 101.174 108.576L101.842 109.378C101.66 109.53 101.479 109.68 101.297 109.826ZM26.487 109.813L25.945 109.367L26.611 108.563L27.147 109.004L26.487 109.813ZM102.378 108.927L101.702 108.13C101.878 107.981 102.051 107.831 102.224 107.68L102.911 108.467C102.734 108.622 102.557 108.775 102.378 108.927ZM25.405 108.913C25.227 108.76 25.048 108.608 24.871 108.452L25.56 107.667C25.733 107.819 25.907 107.969 26.082 108.118L25.405 108.913ZM103.44 108.002L102.741 107.225L103.255 106.76L103.959 107.532L103.44 108.002ZM24.346 107.988C24.17 107.832 23.996 107.673 23.823 107.515L24.529 106.745C24.698 106.899 24.869 107.054 25.041 107.206L24.346 107.988ZM104.477 107.054L103.763 106.292L104.264 105.816L104.988 106.57L104.477 107.054ZM23.306 107.036L22.795 106.552L23.519 105.798L24.02 106.274L23.306 107.036ZM105.491 106.08L104.762 105.333C104.926 105.172 105.089 105.009 105.251 104.846L105.992 105.583C105.826 105.751 105.659 105.917 105.491 106.08ZM22.29 106.062L21.792 105.567L22.533 104.83L23.023 105.317L22.29 106.062ZM106.486 105.082L105.735 104.354L106.214 103.855L106.972 104.575L106.486 105.082ZM21.299 105.065L20.811 104.558L21.569 103.838L22.047 104.337L21.299 105.065ZM107.454 104.063L106.688 103.353L107.156 102.843L107.929 103.544L107.454 104.063ZM20.33 104.045L19.854 103.526L20.63 102.825L21.096 103.335L20.33 104.045ZM108.399 103.019L107.616 102.326L108.071 101.806L108.862 102.489L108.399 103.019ZM19.386 103.001L18.923 102.471L19.714 101.787L20.169 102.307L19.386 103.001ZM109.32 101.952L108.521 101.278L108.964 100.747L109.77 101.411L109.32 101.952ZM18.469 101.937L18.019 101.397L18.825 100.733L19.268 101.264L18.469 101.937ZM110.214 100.866L109.4 100.211L109.83 99.67L110.652 100.315L110.214 100.866ZM17.576 100.852L17.139 100.302L17.959 99.655L18.39 100.197L17.576 100.852ZM111.085 99.756L110.254 99.123L110.672 98.57L111.509 99.196L111.085 99.756ZM16.707 99.745L16.283 99.185L17.12 98.559L17.537 99.11L16.707 99.745ZM111.925 98.628L111.08 98.014L111.485 97.452L112.335 98.058L111.925 98.628ZM15.867 98.619L15.457 98.05L16.307 97.443L16.711 98.005L15.867 98.619ZM112.744 97.479L111.884 96.886L112.275 96.314L113.141 96.9L112.744 97.479ZM15.053 97.473L14.656 96.893L15.522 96.307L15.912 96.877L15.053 97.473ZM113.532 96.313L112.659 95.739L113.037 95.157L113.916 95.721L113.532 96.313ZM14.266 96.309L13.884 95.722L14.761 95.156L15.139 95.736L14.266 96.309ZM114.29 95.128L113.407 94.569C113.53 94.374 113.651 94.177 113.77 93.982L114.663 94.525C114.54 94.727 114.417 94.928 114.29 95.128ZM13.508 95.126L13.14 94.528L14.033 93.987L14.395 94.573L13.508 95.126ZM12.778 93.927L12.425 93.324L13.329 92.798L13.678 93.395L12.778 93.927ZM115.024 93.923L114.128 93.387C114.246 93.188 114.362 92.99 114.476 92.79L115.382 93.312C115.264 93.516 115.146 93.72 115.024 93.923ZM12.077 92.712L11.737 92.099L12.655 91.598L12.989 92.202L12.077 92.712ZM115.728 92.701L114.818 92.188C114.931 91.986 115.043 91.784 115.153 91.582L116.071 92.081C115.958 92.289 115.845 92.495 115.728 92.701ZM11.404 91.479C11.295 91.273 11.186 91.064 11.079 90.856L12.01 90.38C12.114 90.584 12.22 90.787 12.328 90.989L11.404 91.479ZM116.404 91.464L115.483 90.971C115.592 90.768 115.698 90.564 115.804 90.359L116.733 90.837C116.624 91.046 116.515 91.255 116.404 91.464ZM10.761 90.232L10.451 89.603L11.392 89.148L11.696 89.766L10.761 90.232ZM117.05 90.209L116.117 89.741C116.22 89.535 116.321 89.327 116.422 89.12L117.363 89.575C117.26 89.787 117.156 89.998 117.05 90.209ZM10.15 88.971C10.049 88.758 9.95 88.545 9.854 88.331L10.806 87.903C10.9 88.111 10.997 88.318 11.094 88.524L10.15 88.971ZM117.668 88.937L116.722 88.496L117.014 87.864L117.964 88.298L117.668 88.937ZM9.56601 87.696L9.28699 87.052L10.247 86.641L10.522 87.272L9.56601 87.696ZM118.252 87.654L117.296 87.232L117.573 86.596L118.533 87.007L118.252 87.654ZM9.01501 86.407L8.75 85.754L9.71899 85.366L9.98001 86.005L9.01501 86.407ZM118.805 86.357L117.841 85.954C117.93 85.741 118.016 85.528 118.101 85.314L119.072 85.7C118.985 85.919 118.896 86.138 118.805 86.357ZM8.491 85.1L8.241 84.443L9.22 84.076L9.466 84.724L8.491 85.1ZM119.331 85.041L118.356 84.667L118.602 84.017L119.581 84.382L119.331 85.041ZM8 83.781C7.92 83.56 7.84201 83.339 7.76501 83.116L8.75299 82.776C8.82799 82.995 8.90499 83.211 8.98199 83.428L8 83.781ZM119.822 83.718L118.839 83.366L119.068 82.712L120.057 83.052L119.822 83.718ZM7.539 82.449L7.32199 81.781L8.31601 81.462L8.53101 82.12L7.539 82.449ZM120.284 82.382L119.292 82.056L119.506 81.395L120.502 81.712L120.284 82.382ZM7.10999 81.109L6.90799 80.433L7.91199 80.14L8.11099 80.803L7.10999 81.109ZM120.711 81.035L119.713 80.728L119.91 80.067L120.914 80.361C120.847 80.586 120.78 80.81 120.711 81.035ZM6.715 79.758L6.52899 79.081L7.539 78.808L7.72101 79.477L6.715 79.758ZM121.106 79.683L120.1 79.403L120.281 78.737L121.291 79.004L121.106 79.683ZM6.35101 78.399L6.181 77.715L7.19699 77.469L7.36301 78.14L6.35101 78.399ZM121.468 78.322L120.454 78.067L120.62 77.395L121.635 77.641L121.468 78.322ZM6.01901 77.03L5.866 76.342L6.88699 76.123L7.03799 76.798L6.01901 77.03ZM121.798 76.955L120.779 76.721L120.929 76.047L121.95 76.268L121.798 76.955ZM5.72101 75.654L5.586 74.967L6.61099 74.767L6.746 75.446L5.72101 75.654ZM122.095 75.58L121.07 75.373L121.203 74.695L122.23 74.889L122.095 75.58ZM5.45599 74.272L5.336 73.58L6.366 73.403L6.48499 74.085L5.45599 74.272ZM122.358 74.196L121.329 74.015L121.446 73.331L122.477 73.504L122.358 74.196ZM5.22299 72.884L5.11899 72.187L6.15399 72.041L6.25601 72.724L5.22299 72.884ZM122.589 72.808L121.556 72.649L121.657 71.966L122.692 72.112L122.589 72.808ZM5.02399 71.49L4.93799 70.793L5.974 70.668L6.06 71.355L5.02399 71.49ZM122.787 71.414L121.751 71.282L121.836 70.595L122.874 70.716L122.787 71.414ZM4.85699 70.093L4.78601 69.393L5.82599 69.293L5.89499 69.981L4.85699 70.093ZM122.951 70.015L121.912 69.908L121.98 69.218L123.02 69.318L122.951 70.015ZM4.724 68.692L4.66901 67.99L5.711 67.917L5.76401 68.605L4.724 68.692ZM123.083 68.616L122.043 68.53L122.095 67.841L123.137 67.914L123.083 68.616ZM4.62399 67.286L4.586 66.585L5.63 66.533L5.66599 67.226L4.62399 67.286ZM123.181 67.211L122.139 67.151L122.174 66.46L123.218 66.508L123.181 67.211ZM4.55499 65.883L4.534 65.182L5.578 65.155L5.599 65.844L4.55499 65.883ZM123.247 65.804L122.203 65.769L122.223 65.076L123.267 65.101L123.247 65.804ZM4.522 64.478L4.517 63.774H5.561L5.56601 64.465L4.522 64.478ZM123.279 64.399L122.235 64.385L122.239 63.694L122.238 63.533H123.282L123.283 63.685L123.279 64.399ZM5.564 63.081L4.51999 63.073L4.53101 62.369L5.57501 62.39L5.564 63.081ZM122.232 62.846L122.218 62.153L123.262 62.128L123.276 62.829L122.232 62.846ZM5.595 61.698L4.55099 61.663L4.578 60.962L5.62201 61.004L5.595 61.698ZM122.197 61.464L122.166 60.774L123.21 60.722L123.241 61.426L122.197 61.464ZM5.65701 60.318L4.61499 60.259L4.65799 59.557L5.70001 59.626L5.65701 60.318ZM122.13 60.083L122.083 59.394L123.125 59.315L123.172 60.018L122.13 60.083ZM5.75101 58.94L4.711 58.854L4.771 58.155L5.811 58.249L5.75101 58.94ZM122.029 58.706L121.966 58.016L123.006 57.916L123.069 58.616L122.029 58.706ZM5.879 57.562L4.84 57.455L4.91699 56.754L5.95499 56.875L5.879 57.562ZM121.896 57.327L121.817 56.641L122.854 56.516L122.935 57.216L121.896 57.327ZM6.04001 56.188L5.004 56.055L5.09799 55.356L6.133 55.502L6.04001 56.188ZM121.728 55.955L121.633 55.271L122.668 55.119L122.765 55.817L121.728 55.955ZM6.233 54.819L5.20001 54.66L5.31 53.966L6.341 54.135L6.233 54.819ZM121.532 54.587L121.421 53.904L122.452 53.731L122.565 54.424L121.532 54.587ZM6.45801 53.453L5.42899 53.273L5.556 52.58L6.58301 52.774L6.45801 53.453ZM121.301 53.222L121.174 52.542L122.199 52.344L122.33 53.035L121.301 53.222ZM6.716 52.095L5.69101 51.888L5.83499 51.198L6.85599 51.419L6.716 52.095ZM121.039 51.866L120.895 51.19L121.916 50.965L122.062 51.654L121.039 51.866ZM7.005 50.744L5.98599 50.512L6.14499 49.829L7.16199 50.071L7.005 50.744ZM120.745 50.515L120.585 49.84L121.601 49.594L121.763 50.278L120.745 50.515ZM7.32599 49.398L6.31299 49.143C6.36999 48.916 6.42901 48.687 6.48901 48.462L7.49899 48.731L7.32599 49.398ZM120.417 49.171L120.24 48.503L121.25 48.23L121.429 48.911L120.417 49.171ZM7.67899 48.062L6.673 47.782L6.86401 47.106L7.86801 47.396L7.67899 48.062ZM120.057 47.836L119.866 47.17L120.868 46.876L121.063 47.552L120.057 47.836ZM8.065 46.735L7.065 46.43L7.27399 45.757L8.26999 46.07L8.065 46.735ZM119.666 46.509L119.46 45.85L120.454 45.531L120.666 46.204L119.666 46.509ZM8.48499 45.41L7.49301 45.084L7.71899 44.413L8.70801 44.753L8.48499 45.41ZM119.244 45.193L119.02 44.537L120.008 44.195L120.234 44.86L119.244 45.193ZM8.935 44.098L7.952 43.745L8.19199 43.083L9.173 43.444L8.935 44.098ZM118.791 43.886L118.552 43.238L119.531 42.871L119.774 43.532L118.791 43.886ZM9.41699 42.795L8.44199 42.421C8.52699 42.2 8.61201 41.981 8.70001 41.762L9.66901 42.152C9.58301 42.365 9.49899 42.58 9.41699 42.795ZM118.305 42.593L118.051 41.948L119.02 41.56L119.278 42.213L118.305 42.593ZM9.92899 41.507L8.96399 41.108L9.237 40.457L10.199 40.866L9.92899 41.507ZM117.791 41.313L117.522 40.677L118.482 40.266L118.755 40.91L117.791 41.313ZM10.472 40.23L9.51599 39.81C9.61099 39.594 9.70699 39.378 9.80499 39.164L10.755 39.598C10.659 39.808 10.565 40.018 10.472 40.23ZM117.245 40.047L116.963 39.418L117.913 38.984L118.201 39.622L117.245 40.047ZM11.045 38.968L10.099 38.525L10.402 37.888L11.343 38.343L11.045 38.968ZM116.672 38.794L116.374 38.173L117.313 37.714L117.616 38.346L116.672 38.794ZM11.649 37.72L10.714 37.254L11.033 36.624L11.962 37.102L11.649 37.72ZM116.07 37.554C115.967 37.35 115.864 37.145 115.758 36.943L116.685 36.461C116.793 36.669 116.9 36.878 117.005 37.088L116.07 37.554ZM12.283 36.485L11.357 36C11.466 35.791 11.579 35.583 11.691 35.377L12.609 35.876C12.499 36.078 12.39 36.282 12.283 36.485ZM115.436 36.331L115.108 35.724L116.025 35.223L116.357 35.839L115.436 36.331ZM12.944 35.268L12.03 34.759L12.378 34.145L13.284 34.665L12.944 35.268ZM114.774 35.121L114.433 34.523L115.337 33.999L115.685 34.608L114.774 35.121ZM13.635 34.067L12.735 33.537L13.097 32.931L13.992 33.472L13.635 34.067ZM114.083 33.927C113.967 33.729 113.848 33.533 113.729 33.338L114.62 32.793C114.743 32.993 114.864 33.194 114.984 33.396L114.083 33.927ZM14.352 32.883L13.465 32.332L13.841 31.735L14.722 32.297L14.352 32.883ZM113.362 32.749C113.242 32.555 113.119 32.361 112.995 32.169L113.872 31.603C114 31.801 114.126 31.998 114.25 32.198L113.362 32.749ZM15.098 31.716L14.225 31.144C14.354 30.946 14.484 30.75 14.618 30.554L15.482 31.143C15.352 31.333 15.225 31.524 15.098 31.716ZM112.619 31.591L112.235 31.017L113.099 30.43L113.491 31.013L112.619 31.591ZM15.872 30.568L15.012 29.975L15.416 29.397L16.268 30.002L15.872 30.568ZM111.846 30.45L111.447 29.883L112.299 29.278L112.702 29.851L111.846 30.45ZM16.672 29.44L15.828 28.824L16.243 28.26L17.084 28.88L16.672 29.44ZM111.043 29.325L110.631 28.768L111.468 28.142L111.886 28.706L111.043 29.325ZM17.5 28.329L16.669 27.696C16.812 27.509 16.955 27.323 17.1 27.138L17.922 27.783L17.5 28.329ZM110.216 28.219L109.793 27.674L110.613 27.027C110.759 27.211 110.902 27.397 111.046 27.584L110.216 28.219ZM18.352 27.24L17.538 26.585L17.98 26.04L18.79 26.7L18.352 27.24ZM109.363 27.132L108.925 26.596L109.731 25.932L110.174 26.476L109.363 27.132ZM19.231 26.169L18.43 25.497C18.582 25.317 18.733 25.137 18.887 24.959L19.678 25.642C19.529 25.816 19.379 25.992 19.231 26.169ZM108.483 26.067L108.033 25.541L108.824 24.858L109.28 25.392L108.483 26.067ZM20.133 25.121L19.348 24.432C19.504 24.254 19.66 24.079 19.819 23.904L20.591 24.607C20.438 24.777 20.285 24.949 20.133 25.121ZM107.579 25.02C107.427 24.848 107.274 24.677 107.12 24.507L107.892 23.804C108.051 23.979 108.209 24.153 108.364 24.331L107.579 25.02ZM21.06 24.095L20.294 23.385L20.774 22.872L21.534 23.588L21.06 24.095ZM106.65 23.998C106.494 23.829 106.335 23.662 106.177 23.496L106.933 22.774C107.095 22.944 107.256 23.115 107.416 23.288L106.65 23.998ZM22.01 23.093L21.261 22.365L21.752 21.863L22.495 22.598L22.01 23.093ZM105.698 22.998L105.211 22.505L105.952 21.768L106.444 22.269L105.698 22.998ZM22.985 22.11L22.252 21.365L22.756 20.875L23.481 21.628L22.985 22.11ZM104.72 22.017C104.556 21.856 104.391 21.697 104.225 21.538L104.947 20.782C105.117 20.944 105.286 21.107 105.454 21.272L104.72 22.017ZM23.981 21.153L23.267 20.391L23.783 19.913L24.489 20.683L23.981 21.153ZM103.723 21.062C103.555 20.904 103.386 20.749 103.215 20.594L103.918 19.822C104.092 19.979 104.264 20.139 104.436 20.3L103.723 21.062ZM25 20.218L24.303 19.439L24.83 18.974L25.517 19.761L25 20.218ZM102.699 20.129C102.528 19.975 102.355 19.824 102.182 19.673L102.867 18.884C103.044 19.039 103.221 19.194 103.396 19.349L102.699 20.129ZM26.04 19.309L25.362 18.514L25.899 18.061L26.567 18.863L26.04 19.309ZM101.659 19.222L101.129 18.778L101.795 17.974L102.334 18.426L101.659 19.222ZM27.101 18.424L26.441 17.614L26.99 17.173L27.639 17.991L27.101 18.424ZM100.593 18.338L100.053 17.906L100.7 17.086L101.25 17.525L100.593 18.338ZM28.182 17.565L27.543 16.74L28.1 16.312L28.732 17.145L28.182 17.565ZM99.507 17.479L98.958 17.06L99.586 16.225C99.774 16.367 99.961 16.509 100.147 16.653L99.507 17.479ZM29.283 16.732L28.663 15.891C28.852 15.752 29.041 15.613 29.232 15.475L29.84 16.325C29.654 16.46 29.468 16.595 29.283 16.732ZM98.402 16.648L97.841 16.242L98.45 15.392L99.02 15.806L98.402 16.648ZM30.404 15.926L29.803 15.07L30.381 14.67L30.972 15.532L30.404 15.926ZM97.278 15.841L96.707 15.448L97.296 14.584L97.875 14.983L97.278 15.841ZM31.542 15.145L30.962 14.275L31.548 13.889L32.12 14.762L31.542 15.145ZM96.132 15.061C95.94 14.932 95.747 14.807 95.553 14.681L96.121 13.804C96.319 13.932 96.515 14.061 96.711 14.192L96.132 15.061ZM32.699 14.392L32.14 13.509L32.733 13.138L33.284 14.027L32.699 14.392ZM94.97 14.309L94.382 13.943L94.929 13.052L95.528 13.425L94.97 14.309ZM33.874 13.667L33.335 12.772L33.939 12.413L34.467 13.315L33.874 13.667ZM93.79 13.584L93.193 13.233L93.717 12.329L94.326 12.688L93.79 13.584ZM35.063 12.971L34.545 12.063L35.157 11.719L35.664 12.633L35.063 12.971ZM92.592 12.887C92.391 12.773 92.191 12.662 91.988 12.55L92.491 11.634C92.697 11.747 92.904 11.862 93.108 11.979L92.592 12.887ZM36.27 12.302L35.773 11.382L36.394 11.053L36.878 11.978L36.27 12.302ZM91.378 12.219C91.175 12.111 90.971 12.003 90.766 11.896L91.248 10.969C91.457 11.077 91.666 11.187 91.874 11.299L91.378 12.219ZM37.49 11.663L37.018 10.73L37.643 10.417L38.107 11.354L37.49 11.663ZM90.149 11.581L89.527 11.272L89.988 10.333L90.62 10.648L90.149 11.581ZM38.724 11.053L38.275 10.11L38.908 9.81201L39.349 10.758L38.724 11.053ZM88.903 10.971L88.275 10.676L88.713 9.728L89.352 10.027L88.903 10.971ZM39.974 10.471L39.546 9.51901L40.187 9.23499L40.604 10.193L39.974 10.471ZM87.645 10.391L87.011 10.113L87.424 9.15302L88.072 9.43701L87.645 10.391ZM41.238 9.922L40.831 8.95999L41.478 8.69101L41.873 9.65799L41.238 9.922ZM86.37 9.841C86.158 9.752 85.944 9.664 85.73 9.578L86.12 8.60901C86.34 8.69701 86.558 8.78699 86.775 8.87799L86.37 9.841ZM42.515 9.39999L42.131 8.42899C42.35 8.34299 42.57 8.25601 42.79 8.17401L43.157 9.15302C42.943 9.23302 42.728 9.31599 42.515 9.39999ZM85.084 9.32101L84.436 9.07199L84.805 8.095L85.464 8.34698L85.084 9.32101ZM43.807 8.909L43.448 7.92801L44.109 7.69L44.458 8.67499L43.807 8.909ZM83.785 8.832C83.568 8.753 83.351 8.67601 83.132 8.60001L83.476 7.61301C83.699 7.69101 83.921 7.77001 84.142 7.85101L83.785 8.832ZM45.112 8.44699L44.774 7.45801C44.997 7.38201 45.219 7.30701 45.444 7.23401L45.767 8.228C45.547 8.301 45.328 8.37299 45.112 8.44699ZM82.475 8.375L81.816 8.15799L82.137 7.164L82.808 7.38501L82.475 8.375ZM46.425 8.01901L46.114 7.021L46.786 6.81601L47.087 7.81601L46.425 8.01901ZM81.152 7.95001L80.492 7.74899L80.79 6.74701L81.464 6.95099L81.152 7.95001ZM47.749 7.62L47.461 6.616L48.139 6.42499L48.415 7.43301L47.749 7.62ZM79.826 7.55701L79.161 7.37299L79.433 6.36301C79.66 6.42401 79.886 6.48799 80.112 6.55099L79.826 7.55701ZM49.082 7.254L48.819 6.242L49.501 6.06799L49.754 7.08099L49.082 7.254ZM78.494 7.19699L77.822 7.02899L78.072 6.013L78.753 6.185L78.494 7.19699ZM50.425 6.92001L50.183 5.90302L50.87 5.746L51.099 6.76501L50.425 6.92001ZM77.149 6.867L76.475 6.715L76.7 5.694L77.387 5.849L77.149 6.867ZM51.773 6.61899L51.558 5.59601L52.248 5.45499L52.45 6.48001L51.773 6.61899ZM75.799 6.57001L75.121 6.43399L75.319 5.409L76.01 5.547L75.799 6.57001ZM53.129 6.34799L52.939 5.32101L53.63 5.19601L53.81 6.22501L53.129 6.34799ZM74.443 6.306L73.761 6.186L73.937 5.15601L74.629 5.27701L74.443 6.306ZM54.493 6.10999L54.324 5.07901L55.02 4.97101L55.175 6.004L54.493 6.10999ZM73.079 6.07501L72.395 5.97101L72.547 4.936L73.243 5.04199L73.079 6.07501ZM55.86 5.90601L55.718 4.871L56.415 4.77899L56.545 5.81601L55.86 5.90601ZM71.711 5.875L71.026 5.78699L71.151 4.75L71.85 4.83801L71.711 5.875ZM57.232 5.733L57.115 4.69501L57.813 4.62L57.921 5.65799L57.232 5.733ZM70.339 5.707L69.649 5.63599L69.753 4.59601L70.451 4.66901L70.339 5.707ZM58.608 5.59299L58.514 4.55301L59.215 4.49301L59.298 5.535L58.608 5.59299ZM68.962 5.573L68.273 5.51801L68.35 4.47601L69.052 4.53299L68.962 5.573ZM59.986 5.48599L59.917 4.444L60.62 4.401L60.676 5.44501L59.986 5.48599ZM67.582 5.47L66.892 5.43201L66.944 4.388L67.648 4.42801L67.582 5.47ZM61.367 5.41L61.323 4.366L62.023 4.34L62.058 5.384L61.367 5.41ZM66.203 5.401L65.51 5.37799L65.541 4.33401L66.242 4.35699L66.203 5.401ZM62.746 5.367L62.725 4.323L63.429 4.31299L63.437 5.35699L62.746 5.367ZM64.819 5.36301L64.128 5.35599L64.132 4.31201L64.836 4.319L64.819 5.36301Z" fill="#7EDEF9"/>
<path id="Inner spinner2" d="M63.925 90.641H63.9C62.738 90.641 61.566 90.566 60.416 90.417L61.078 85.288C62.009 85.408 62.958 85.469 63.9 85.469L63.925 90.641ZM67.442 90.409L66.766 85.282C67.707 85.158 68.646 84.971 69.557 84.727L70.897 89.722C69.768 90.025 68.606 90.257 67.442 90.409ZM56.958 89.738C55.825 89.436 54.701 89.057 53.618 88.608L55.591 83.828C56.466 84.189 57.374 84.496 58.288 84.739L56.958 89.738ZM74.234 88.589L72.249 83.813C73.121 83.45 73.979 83.026 74.798 82.552L77.389 87.026C76.376 87.614 75.314 88.139 74.234 88.589ZM50.454 87.05C49.439 86.465 48.454 85.806 47.523 85.094L50.669 80.988C51.421 81.565 52.218 82.097 53.038 82.57L50.454 87.05ZM80.315 85.066L77.161 80.966C77.912 80.389 78.632 79.757 79.303 79.086L82.96 82.743C82.132 83.572 81.241 84.353 80.315 85.066ZM44.873 82.776C44.044 81.948 43.261 81.059 42.546 80.133L46.642 76.975C47.219 77.723 47.853 78.443 48.525 79.113L44.873 82.776ZM85.282 80.094L81.18 76.946C81.758 76.192 82.291 75.395 82.765 74.577L87.241 77.167C86.655 78.178 85.997 79.163 85.282 80.094ZM40.583 77.208C39.995 76.195 39.469 75.134 39.018 74.054L43.792 72.063C44.156 72.935 44.581 73.793 45.056 74.612L40.583 77.208ZM88.801 74.006L84.025 72.023C84.387 71.153 84.694 70.246 84.939 69.33L89.935 70.664C89.633 71.801 89.251 72.925 88.801 74.006ZM37.879 70.719C37.576 69.591 37.343 68.429 37.189 67.265L42.316 66.585C42.441 67.526 42.628 68.464 42.874 69.375L37.879 70.719ZM90.619 67.207L85.49 66.539C85.612 65.602 85.674 64.645 85.674 63.695V63.593H90.845V63.695C90.846 64.867 90.77 66.048 90.619 67.207ZM36.954 63.746V63.695C36.954 62.537 37.028 61.373 37.174 60.238L42.303 60.897C42.186 61.815 42.125 62.757 42.125 63.696L36.954 63.746ZM85.48 60.761C85.354 59.824 85.164 58.887 84.917 57.972L89.908 56.619C90.215 57.751 90.45 58.912 90.606 60.072L85.48 60.761ZM42.849 58.105L37.85 56.781C38.15 55.644 38.53 54.52 38.976 53.438L43.758 55.409C43.398 56.281 43.092 57.189 42.849 58.105ZM83.992 55.284C83.624 54.41 83.196 53.553 82.721 52.738L87.188 50.131C87.776 51.139 88.305 52.198 88.76 53.28L83.992 55.284ZM45.013 52.853L40.531 50.271C41.116 49.256 41.773 48.27 42.483 47.34L46.593 50.48C46.017 51.233 45.486 52.032 45.013 52.853ZM81.131 50.379C80.551 49.631 79.916 48.913 79.243 48.244L82.888 44.576C83.719 45.401 84.504 46.289 85.219 47.214L81.131 50.379ZM48.467 48.336L44.801 44.689C45.626 43.859 46.515 43.076 47.442 42.36L50.603 46.452C49.853 47.031 49.134 47.665 48.467 48.336ZM77.098 46.374C76.343 45.798 75.543 45.267 74.723 44.796L77.299 40.312C78.313 40.894 79.299 41.549 80.232 42.261L77.098 46.374ZM52.964 44.863L50.363 40.392C51.374 39.805 52.433 39.277 53.514 38.824L55.512 43.594C54.638 43.96 53.781 44.387 52.964 44.863ZM72.168 43.544C71.292 43.185 70.384 42.88 69.468 42.638L70.789 37.638C71.922 37.937 73.047 38.315 74.132 38.761L72.168 43.544ZM58.198 42.674L56.85 37.681C57.983 37.375 59.145 37.142 60.303 36.986L60.988 42.113C60.052 42.238 59.114 42.427 58.198 42.674ZM66.675 42.096C65.78 41.982 64.861 41.922 63.945 41.92L63.824 41.921V36.75V39.336L63.839 36.75C63.847 36.75 63.855 36.75 63.863 36.75C65.065 36.75 66.211 36.823 67.33 36.965L66.675 42.096Z" fill="#7EDEF9"/>
<path id="Vector_2" d="M63.9 119.145C33.325 119.145 8.45001 94.27 8.45001 63.695C8.45001 33.119 33.325 8.24402 63.9 8.24402C94.475 8.24402 119.351 33.119 119.351 63.695C119.351 94.269 94.476 119.145 63.9 119.145ZM63.9 11.031C34.861 11.031 11.237 34.656 11.237 63.695C11.237 92.734 34.861 116.358 63.9 116.358C92.939 116.358 116.564 92.734 116.564 63.695C116.564 34.656 92.939 11.031 63.9 11.031Z" fill="url(#paint0_linear_1_46)"/>
<path id="Vector_3" d="M63.9 96.246C45.951 96.246 31.349 81.644 31.349 63.695C31.349 45.746 45.951 31.143 63.9 31.143C81.849 31.143 96.452 45.746 96.452 63.695C96.452 81.644 81.849 96.246 63.9 96.246ZM63.9 32.779C46.853 32.779 32.985 46.648 32.985 63.695C32.985 80.742 46.854 94.61 63.9 94.61C80.947 94.61 94.816 80.741 94.816 63.695C94.816 46.647 80.948 32.779 63.9 32.779Z" fill="#7EDEF9"/>
<path id="Vector_4" d="M57.337 49.588L55.865 46.43C58.389 45.253 61.093 44.657 63.9 44.657V48.139C61.605 48.14 59.397 48.627 57.337 49.588Z" fill="url(#paint1_linear_1_46)"/>
<path id="Vector_5" d="M47.162 72.771C45.658 70.002 44.863 66.863 44.863 63.695C44.863 58.839 46.69 54.215 50.009 50.676L52.551 53.058C49.839 55.95 48.345 59.727 48.345 63.695C48.345 66.284 48.994 68.848 50.222 71.108L47.162 72.771Z" fill="url(#paint2_linear_1_46)"/>
<path id="Vector_6" d="M63.9 82.732C61.945 82.732 60.016 82.437 58.167 81.855L59.215 78.532C60.724 79.008 62.3 79.25 63.9 79.25C67.927 79.25 71.745 77.717 74.652 74.935L77.061 77.451C73.503 80.857 68.829 82.732 63.9 82.732Z" fill="url(#paint3_linear_1_46)"/>
<path id="Vector_7" d="M82.344 68.432L78.969 67.568C79.291 66.308 79.456 65.004 79.456 63.694C79.456 58.519 76.891 53.696 72.595 50.794L74.545 47.909C79.8 51.459 82.937 57.361 82.937 63.694C82.938 65.297 82.739 66.89 82.344 68.432Z" fill="url(#paint4_linear_1_46)"/>
<path id="Vector_8" d="M63.9 74.88C57.732 74.88 52.715 69.862 52.715 63.695C52.715 57.528 57.733 52.51 63.9 52.51C70.067 52.51 75.085 57.528 75.085 63.695C75.085 69.862 70.068 74.88 63.9 74.88ZM63.9 53.072C58.042 53.072 53.277 57.837 53.277 63.695C53.277 69.552 58.042 74.318 63.9 74.318C69.757 74.318 74.523 69.553 74.523 63.695C74.523 57.837 69.758 53.072 63.9 53.072Z" fill="#7EDEF9"/>
<g id="Group_2">
<path id="Vector_9" d="M64.997 1.70001C64.997 2.30501 64.506 2.79599 63.901 2.79599C63.296 2.79599 62.805 2.30501 62.805 1.70001C62.805 1.09401 63.296 0.604004 63.901 0.604004C64.506 0.604004 64.997 1.09501 64.997 1.70001Z" fill="#7EDEF9"/>
<path id="Vector_10" d="M55.285 2.29203C55.38 2.89003 54.972 3.45203 54.374 3.54603C53.776 3.64103 53.215 3.23305 53.12 2.63505C53.025 2.03705 53.433 1.47505 54.031 1.38105C54.629 1.28705 55.19 1.69403 55.285 2.29203Z" fill="#7EDEF9"/>
<path id="Vector_11" d="M45.786 4.39599C45.973 4.97199 45.658 5.59 45.082 5.777C44.506 5.964 43.888 5.64899 43.701 5.07299C43.514 4.49699 43.829 3.87898 44.405 3.69198C44.981 3.50498 45.599 3.81999 45.786 4.39599Z" fill="#7EDEF9"/>
<path id="Vector_12" d="M36.732 7.95998C37.007 8.49898 36.792 9.15998 36.253 9.43398C35.714 9.70898 35.053 9.49398 34.779 8.95498C34.505 8.41598 34.719 7.75498 35.258 7.48098C35.797 7.20598 36.457 7.41998 36.732 7.95998Z" fill="#7EDEF9"/>
<path id="Vector_13" d="M28.348 12.896C28.704 13.386 28.595 14.071 28.105 14.427C27.615 14.783 26.93 14.674 26.574 14.184C26.218 13.694 26.327 13.009 26.816 12.653C27.306 12.297 27.992 12.406 28.348 12.896Z" fill="#7EDEF9"/>
<path id="Vector_14" d="M20.839 19.083C21.267 19.511 21.267 20.205 20.839 20.634C20.411 21.062 19.717 21.062 19.288 20.634C18.86 20.206 18.86 19.512 19.288 19.083C19.717 18.655 20.411 18.655 20.839 19.083Z" fill="#7EDEF9"/>
<path id="Vector_15" d="M14.39 26.368C14.88 26.724 14.988 27.41 14.632 27.899C14.276 28.389 13.591 28.497 13.101 28.142C12.611 27.786 12.503 27.1 12.858 26.611C13.215 26.121 13.9 26.012 14.39 26.368Z" fill="#7EDEF9"/>
<path id="Vector_16" d="M9.161 34.573C9.701 34.848 9.915 35.508 9.64 36.047C9.365 36.587 8.705 36.801 8.165 36.526C7.625 36.251 7.41099 35.591 7.68599 35.051C7.96099 34.513 8.621 34.298 9.161 34.573Z" fill="#7EDEF9"/>
<path id="Vector_17" d="M5.27899 43.495C5.85499 43.682 6.17 44.301 5.983 44.876C5.796 45.452 5.17698 45.7669 4.60198 45.5799C4.02598 45.3929 3.711 44.775 3.898 44.199C4.085 43.623 4.70299 43.308 5.27899 43.495Z" fill="#7EDEF9"/>
<path id="Vector_18" d="M2.841 52.914C3.439 53.009 3.84701 53.57 3.75201 54.168C3.65701 54.766 3.09599 55.174 2.49799 55.079C1.89999 54.984 1.49201 54.423 1.58701 53.825C1.68101 53.227 2.243 52.819 2.841 52.914Z" fill="#7EDEF9"/>
<path id="Vector_19" d="M1.90601 62.598C2.51101 62.598 3.00201 63.089 3.00201 63.694C3.00201 64.299 2.51101 64.79 1.90601 64.79C1.30101 64.79 0.809998 64.299 0.809998 63.694C0.809998 63.089 1.30001 62.598 1.90601 62.598Z" fill="#7EDEF9"/>
<path id="Vector_20" d="M2.49799 72.31C3.09599 72.215 3.65801 72.623 3.75201 73.221C3.84701 73.819 3.439 74.381 2.841 74.475C2.243 74.57 1.68101 74.162 1.58701 73.564C1.49201 72.966 1.89999 72.405 2.49799 72.31Z" fill="#7EDEF9"/>
<path id="Vector_21" d="M4.60101 81.81C5.17701 81.623 5.79499 81.938 5.98199 82.514C6.16899 83.09 5.85402 83.708 5.27802 83.895C4.70202 84.082 4.084 83.767 3.896 83.191C3.71 82.615 4.02501 81.997 4.60101 81.81Z" fill="#7EDEF9"/>
<path id="Vector_22" d="M8.165 90.863C8.704 90.588 9.365 90.803 9.64 91.342C9.915 91.882 9.7 92.542 9.161 92.817C8.622 93.092 7.96099 92.877 7.68599 92.338C7.41099 91.798 7.626 91.138 8.165 90.863Z" fill="#7EDEF9"/>
<path id="Vector_23" d="M13.101 99.247C13.591 98.891 14.276 99.0001 14.632 99.4891C14.988 99.9791 14.879 100.664 14.39 101.02C13.9 101.376 13.215 101.267 12.859 100.777C12.503 100.289 12.612 99.603 13.101 99.247Z" fill="#7EDEF9"/>
<path id="Vector_24" d="M19.288 106.756C19.716 106.328 20.41 106.328 20.839 106.756C21.267 107.184 21.267 107.878 20.839 108.306C20.411 108.734 19.717 108.734 19.288 108.306C18.86 107.879 18.86 107.184 19.288 106.756Z" fill="#7EDEF9"/>
<path id="Vector_25" d="M26.574 113.205C26.93 112.715 27.615 112.607 28.105 112.963C28.595 113.319 28.703 114.005 28.348 114.494C27.992 114.984 27.306 115.092 26.817 114.736C26.327 114.38 26.218 113.695 26.574 113.205Z" fill="#7EDEF9"/>
<path id="Vector_26" d="M34.779 118.435C35.054 117.896 35.714 117.681 36.253 117.956C36.793 118.231 37.007 118.891 36.732 119.43C36.457 119.969 35.797 120.184 35.258 119.909C34.718 119.634 34.504 118.974 34.779 118.435Z" fill="#7EDEF9"/>
<path id="Vector_27" d="M43.7 122.316C43.887 121.74 44.506 121.425 45.081 121.612C45.657 121.799 45.972 122.418 45.785 122.993C45.598 123.569 44.979 123.884 44.404 123.697C43.828 123.511 43.513 122.892 43.7 122.316Z" fill="#7EDEF9"/>
<path id="Vector_28" d="M53.119 124.754C53.214 124.156 53.775 123.748 54.373 123.843C54.971 123.938 55.379 124.499 55.284 125.097C55.189 125.695 54.628 126.103 54.03 126.008C53.432 125.913 53.025 125.353 53.119 124.754Z" fill="#7EDEF9"/>
<path id="Vector_29" d="M63.9 126.785C64.5053 126.785 64.996 126.294 64.996 125.689C64.996 125.084 64.5053 124.593 63.9 124.593C63.2947 124.593 62.804 125.084 62.804 125.689C62.804 126.294 63.2947 126.785 63.9 126.785Z" fill="#7EDEF9"/>
<path id="Vector_30" d="M72.516 125.098C72.421 124.5 72.829 123.938 73.427 123.844C74.025 123.749 74.587 124.157 74.681 124.755C74.776 125.353 74.368 125.915 73.77 126.009C73.172 126.103 72.61 125.695 72.516 125.098Z" fill="#7EDEF9"/>
<path id="Vector_31" d="M82.015 122.994C81.828 122.418 82.143 121.8 82.719 121.613C83.295 121.426 83.913 121.741 84.1 122.317C84.287 122.893 83.972 123.511 83.396 123.698C82.821 123.885 82.202 123.57 82.015 122.994Z" fill="#7EDEF9"/>
<path id="Vector_32" d="M91.068 119.43C90.793 118.891 91.008 118.231 91.547 117.956C92.087 117.681 92.747 117.896 93.022 118.435C93.297 118.974 93.082 119.634 92.543 119.909C92.003 120.184 91.343 119.969 91.068 119.43Z" fill="#7EDEF9"/>
<path id="Vector_33" d="M99.453 114.494C99.097 114.004 99.206 113.318 99.696 112.963C100.186 112.607 100.871 112.716 101.227 113.205C101.583 113.695 101.474 114.381 100.985 114.736C100.494 115.092 99.809 114.984 99.453 114.494Z" fill="#7EDEF9"/>
<path id="Vector_34" d="M106.962 108.307C106.534 107.879 106.534 107.185 106.962 106.757C107.39 106.329 108.084 106.329 108.512 106.757C108.94 107.185 108.94 107.879 108.512 108.307C108.084 108.735 107.39 108.735 106.962 108.307Z" fill="#7EDEF9"/>
<path id="Vector_35" d="M113.411 101.021C112.921 100.665 112.813 99.9799 113.169 99.4899C113.525 98.9999 114.21 98.8919 114.7 99.2479C115.19 99.6039 115.298 100.289 114.943 100.779C114.586 101.268 113.9 101.377 113.411 101.021Z" fill="#7EDEF9"/>
<path id="Vector_36" d="M118.64 92.816C118.1 92.541 117.886 91.881 118.161 91.341C118.436 90.802 119.096 90.587 119.636 90.862C120.176 91.137 120.39 91.797 120.115 92.337C119.84 92.877 119.18 93.091 118.64 92.816Z" fill="#7EDEF9"/>
<path id="Vector_37" d="M122.522 83.895C121.946 83.708 121.631 83.089 121.818 82.514C122.005 81.938 122.624 81.623 123.199 81.81C123.775 81.997 124.09 82.615 123.903 83.191C123.716 83.767 123.098 84.082 122.522 83.895Z" fill="#7EDEF9"/>
<path id="Vector_38" d="M124.96 74.476C124.362 74.381 123.954 73.82 124.049 73.222C124.144 72.624 124.705 72.216 125.303 72.311C125.901 72.406 126.309 72.967 126.214 73.565C126.12 74.162 125.558 74.57 124.96 74.476Z" fill="#7EDEF9"/>
<path id="Vector_39" d="M125.895 64.791C126.5 64.791 126.991 64.3003 126.991 63.695C126.991 63.0897 126.5 62.599 125.895 62.599C125.29 62.599 124.799 63.0897 124.799 63.695C124.799 64.3003 125.29 64.791 125.895 64.791Z" fill="#7EDEF9"/>
<path id="Vector_40" d="M125.303 55.079C124.705 55.174 124.143 54.766 124.049 54.168C123.954 53.57 124.362 53.009 124.96 52.914C125.558 52.819 126.12 53.227 126.214 53.825C126.309 54.423 125.901 54.985 125.303 55.079Z" fill="#7EDEF9"/>
<path id="Vector_41" d="M123.199 45.5799C122.623 45.7669 122.005 45.452 121.818 44.876C121.631 44.3 121.946 43.682 122.522 43.495C123.098 43.308 123.716 43.623 123.903 44.199C124.09 44.775 123.775 45.3929 123.199 45.5799Z" fill="#7EDEF9"/>
<path id="Vector_42" d="M119.636 36.527C119.097 36.802 118.436 36.587 118.161 36.048C117.886 35.509 118.101 34.848 118.64 34.574C119.179 34.299 119.84 34.514 120.114 35.053C120.389 35.591 120.175 36.252 119.636 36.527Z" fill="#7EDEF9"/>
<path id="Vector_43" d="M114.699 28.142C114.209 28.498 113.524 28.389 113.168 27.899C112.812 27.409 112.921 26.724 113.41 26.368C113.9 26.012 114.585 26.121 114.941 26.611C115.298 27.101 115.189 27.786 114.699 28.142Z" fill="#7EDEF9"/>
<path id="Vector_44" d="M108.512 20.633C108.084 21.061 107.39 21.061 106.962 20.633C106.534 20.205 106.534 19.511 106.962 19.082C107.39 18.654 108.084 18.654 108.512 19.082C108.94 19.511 108.94 20.205 108.512 20.633Z" fill="#7EDEF9"/>
<path id="Vector_45" d="M101.227 14.1839C100.871 14.6739 100.186 14.783 99.696 14.427C99.206 14.071 99.098 13.385 99.453 12.896C99.809 12.406 100.495 12.2979 100.984 12.6539C101.474 13.0089 101.583 13.6949 101.227 14.1839Z" fill="#7EDEF9"/>
<path id="Vector_46" d="M93.022 8.95498C92.747 9.49398 92.087 9.70898 91.547 9.43398C91.008 9.15898 90.793 8.49898 91.068 7.95998C91.343 7.42098 92.003 7.20598 92.543 7.48098C93.082 7.75498 93.297 8.41498 93.022 8.95498Z" fill="#7EDEF9"/>
<path id="Vector_47" d="M84.1 5.07299C83.913 5.64899 83.294 5.964 82.719 5.777C82.143 5.59 81.828 4.97099 82.015 4.39599C82.202 3.81999 82.821 3.50498 83.396 3.69198C83.971 3.87898 84.287 4.49699 84.1 5.07299Z" fill="#7EDEF9"/>
<path id="Vector_48" d="M74.681 2.63504C74.586 3.23304 74.025 3.64102 73.427 3.54602C72.829 3.45102 72.421 2.89002 72.516 2.29202C72.611 1.69402 73.172 1.28604 73.77 1.38104C74.368 1.47504 74.776 2.03704 74.681 2.63504Z" fill="#7EDEF9"/>
</g>
<g id="Group_3">
<path id="Vector_49" d="M70.069 1.99801C70.02 2.60101 69.49 3.05003 68.887 3.00103C68.283 2.95103 67.835 2.42203 67.884 1.81903C67.933 1.21603 68.463 0.767036 69.066 0.816036C69.67 0.865036 70.119 1.39501 70.069 1.99801Z" fill="#7EDEF9"/>
<path id="Vector_50" d="M60.342 1.79301C60.387 2.39701 59.935 2.92301 59.331 2.96901C58.727 3.01501 58.201 2.56202 58.156 1.95802C58.11 1.35402 58.563 0.828024 59.167 0.782024C59.77 0.736024 60.296 1.18901 60.342 1.79301Z" fill="#7EDEF9"/>
<path id="Vector_51" d="M50.702 3.11204C50.841 3.70104 50.477 4.29204 49.887 4.43104C49.298 4.57004 48.707 4.20604 48.568 3.61604C48.429 3.02704 48.793 2.43604 49.383 2.29704C49.972 2.15804 50.562 2.52204 50.702 3.11204Z" fill="#7EDEF9"/>
<path id="Vector_52" d="M41.387 5.92198C41.617 6.48198 41.349 7.12297 40.789 7.35197C40.229 7.58197 39.588 7.31398 39.359 6.75398C39.129 6.19398 39.397 5.55299 39.957 5.32399C40.517 5.09399 41.157 5.36198 41.387 5.92198Z" fill="#7EDEF9"/>
<path id="Vector_53" d="M32.626 10.155C32.941 10.672 32.776 11.347 32.259 11.661C31.742 11.976 31.067 11.811 30.753 11.294C30.439 10.777 30.603 10.102 31.12 9.78798C31.637 9.47398 32.312 9.63799 32.626 10.155Z" fill="#7EDEF9"/>
<path id="Vector_54" d="M24.636 15.707C25.028 16.169 24.971 16.861 24.509 17.252C24.047 17.644 23.355 17.587 22.964 17.125C22.572 16.663 22.629 15.971 23.091 15.58C23.553 15.188 24.244 15.245 24.636 15.707Z" fill="#7EDEF9"/>
<path id="Vector_55" d="M17.613 22.44C18.072 22.835 18.124 23.527 17.729 23.986C17.334 24.445 16.642 24.497 16.183 24.102C15.724 23.707 15.672 23.015 16.067 22.556C16.461 22.097 17.154 22.045 17.613 22.44Z" fill="#7EDEF9"/>
<path id="Vector_56" d="M11.729 30.189C12.244 30.507 12.404 31.183 12.086 31.698C11.768 32.213 11.092 32.373 10.577 32.055C10.062 31.737 9.902 31.061 10.22 30.546C10.538 30.03 11.214 29.871 11.729 30.189Z" fill="#7EDEF9"/>
<path id="Vector_57" d="M7.13002 38.763C7.68902 38.997 7.952 39.639 7.718 40.198C7.484 40.757 6.84201 41.02 6.28401 40.786C5.72501 40.552 5.46203 39.91 5.69603 39.351C5.92903 38.793 6.57102 38.529 7.13002 38.763Z" fill="#7EDEF9"/>
<path id="Vector_58" d="M3.928 47.951C4.516 48.094 4.87699 48.687 4.73299 49.276C4.58999 49.864 3.99698 50.225 3.40798 50.082C2.81998 49.939 2.45898 49.346 2.60198 48.757C2.74698 48.168 3.34 47.807 3.928 47.951Z" fill="#7EDEF9"/>
<path id="Vector_59" d="M2.20401 57.526C2.80701 57.576 3.256 58.105 3.207 58.708C3.157 59.311 2.62799 59.76 2.02499 59.711C1.42199 59.661 0.972999 59.132 1.022 58.529C1.071 57.926 1.60001 57.477 2.20401 57.526Z" fill="#7EDEF9"/>
<path id="Vector_60" d="M1.99799 67.254C2.60199 67.208 3.128 67.661 3.173 68.265C3.218 68.869 2.76599 69.395 2.16199 69.441C1.55799 69.486 1.032 69.034 0.987 68.43C0.942 67.825 1.39499 67.299 1.99799 67.254Z" fill="#7EDEF9"/>
<path id="Vector_61" d="M3.31698 76.893C3.90598 76.754 4.49698 77.118 4.63598 77.708C4.77498 78.297 4.41101 78.888 3.82101 79.027C3.23201 79.166 2.64101 78.802 2.50201 78.212C2.36301 77.622 2.72798 77.033 3.31698 76.893Z" fill="#7EDEF9"/>
<path id="Vector_62" d="M6.128 86.208C6.688 85.978 7.32902 86.246 7.55802 86.806C7.78802 87.366 7.52 88.007 6.96 88.236C6.4 88.466 5.75901 88.198 5.53001 87.638C5.30001 87.078 5.568 86.438 6.128 86.208Z" fill="#7EDEF9"/>
<path id="Vector_63" d="M10.361 94.969C10.878 94.654 11.553 94.819 11.867 95.336C12.182 95.853 12.017 96.528 11.5 96.842C10.983 97.157 10.308 96.992 9.99399 96.475C9.67899 95.957 9.844 95.283 10.361 94.969Z" fill="#7EDEF9"/>
<path id="Vector_64" d="M15.912 102.959C16.374 102.567 17.066 102.624 17.457 103.086C17.849 103.548 17.792 104.24 17.33 104.631C16.868 105.023 16.177 104.966 15.785 104.504C15.394 104.042 15.451 103.351 15.912 102.959Z" fill="#7EDEF9"/>
<path id="Vector_65" d="M22.645 109.983C23.04 109.524 23.732 109.472 24.191 109.867C24.65 110.262 24.702 110.954 24.307 111.413C23.912 111.872 23.22 111.924 22.761 111.529C22.303 111.134 22.251 110.441 22.645 109.983Z" fill="#7EDEF9"/>
<path id="Vector_66" d="M30.394 115.866C30.712 115.351 31.388 115.191 31.903 115.509C32.418 115.827 32.578 116.503 32.26 117.018C31.942 117.533 31.266 117.693 30.751 117.375C30.236 117.057 30.076 116.382 30.394 115.866Z" fill="#7EDEF9"/>
<path id="Vector_67" d="M38.968 120.465C39.202 119.906 39.844 119.643 40.402 119.877C40.961 120.111 41.224 120.753 40.99 121.311C40.756 121.87 40.114 122.133 39.556 121.899C38.998 121.665 38.735 121.024 38.968 120.465Z" fill="#7EDEF9"/>
<path id="Vector_68" d="M48.156 123.667C48.299 123.079 48.893 122.718 49.481 122.861C50.069 123.004 50.43 123.597 50.287 124.186C50.144 124.774 49.55 125.135 48.962 124.991C48.374 124.848 48.013 124.255 48.156 123.667Z" fill="#7EDEF9"/>
<path id="Vector_69" d="M57.732 125.391C57.781 124.788 58.311 124.339 58.914 124.388C59.517 124.437 59.966 124.967 59.917 125.57C59.868 126.173 59.338 126.622 58.735 126.573C58.131 126.524 57.682 125.995 57.732 125.391Z" fill="#7EDEF9"/>
<path id="Vector_70" d="M67.459 125.597C67.414 124.993 67.866 124.467 68.47 124.421C69.074 124.376 69.6 124.828 69.646 125.432C69.692 126.036 69.239 126.562 68.635 126.608C68.031 126.653 67.505 126.201 67.459 125.597Z" fill="#7EDEF9"/>
<path id="Vector_71" d="M77.099 124.278C76.96 123.689 77.324 123.098 77.914 122.959C78.503 122.82 79.094 123.184 79.233 123.774C79.372 124.364 79.008 124.954 78.418 125.093C77.828 125.232 77.238 124.867 77.099 124.278Z" fill="#7EDEF9"/>
<path id="Vector_72" d="M86.414 121.467C86.184 120.907 86.452 120.266 87.012 120.037C87.572 119.807 88.213 120.075 88.442 120.635C88.672 121.195 88.404 121.836 87.844 122.065C87.284 122.294 86.644 122.027 86.414 121.467Z" fill="#7EDEF9"/>
<path id="Vector_73" d="M95.174 117.234C94.859 116.717 95.024 116.042 95.541 115.728C96.058 115.413 96.733 115.578 97.047 116.095C97.362 116.612 97.197 117.287 96.68 117.601C96.163 117.916 95.489 117.751 95.174 117.234Z" fill="#7EDEF9"/>
<path id="Vector_74" d="M103.165 111.683C102.773 111.221 102.83 110.529 103.292 110.138C103.754 109.746 104.446 109.803 104.837 110.265C105.229 110.727 105.172 111.419 104.71 111.81C104.248 112.201 103.556 112.144 103.165 111.683Z" fill="#7EDEF9"/>
<path id="Vector_75" d="M110.188 104.949C109.729 104.554 109.677 103.862 110.072 103.403C110.467 102.944 111.159 102.892 111.618 103.287C112.077 103.682 112.129 104.374 111.734 104.833C111.339 105.292 110.647 105.344 110.188 104.949Z" fill="#7EDEF9"/>
<path id="Vector_76" d="M116.072 97.201C115.557 96.883 115.397 96.207 115.715 95.692C116.033 95.177 116.709 95.017 117.224 95.335C117.739 95.653 117.899 96.329 117.581 96.844C117.263 97.359 116.587 97.519 116.072 97.201Z" fill="#7EDEF9"/>
<path id="Vector_77" d="M120.671 88.627C120.112 88.393 119.849 87.751 120.083 87.193C120.317 86.634 120.959 86.371 121.517 86.605C122.076 86.839 122.339 87.481 122.106 88.039C121.872 88.597 121.23 88.86 120.671 88.627Z" fill="#7EDEF9"/>
<path id="Vector_78" d="M123.872 79.439C123.284 79.296 122.923 78.703 123.067 78.114C123.21 77.526 123.803 77.165 124.392 77.308C124.98 77.451 125.341 78.044 125.198 78.633C125.055 79.222 124.461 79.582 123.872 79.439Z" fill="#7EDEF9"/>
<path id="Vector_79" d="M125.597 69.863C124.994 69.813 124.545 69.284 124.594 68.681C124.644 68.078 125.173 67.629 125.776 67.678C126.379 67.728 126.828 68.257 126.779 68.86C126.73 69.464 126.2 69.913 125.597 69.863Z" fill="#7EDEF9"/>
<path id="Vector_80" d="M125.802 60.136C125.198 60.182 124.672 59.729 124.627 59.125C124.582 58.521 125.034 57.995 125.638 57.95C126.242 57.905 126.768 58.357 126.814 58.961C126.859 59.564 126.406 60.091 125.802 60.136Z" fill="#7EDEF9"/>
<path id="Vector_81" d="M124.484 50.496C123.895 50.635 123.304 50.271 123.165 49.681C123.026 49.092 123.39 48.501 123.98 48.362C124.569 48.223 125.16 48.587 125.299 49.177C125.438 49.766 125.073 50.357 124.484 50.496Z" fill="#7EDEF9"/>
<path id="Vector_82" d="M121.673 41.181C121.113 41.411 120.472 41.143 120.243 40.583C120.013 40.023 120.281 39.382 120.841 39.153C121.401 38.923 122.042 39.191 122.271 39.751C122.501 40.311 122.233 40.952 121.673 41.181Z" fill="#7EDEF9"/>
<path id="Vector_83" d="M117.44 32.421C116.923 32.736 116.248 32.571 115.934 32.054C115.619 31.537 115.784 30.862 116.301 30.548C116.818 30.233 117.493 30.398 117.807 30.915C118.121 31.432 117.957 32.106 117.44 32.421Z" fill="#7EDEF9"/>
<path id="Vector_84" d="M111.888 24.431C111.426 24.823 110.734 24.766 110.343 24.304C109.951 23.842 110.008 23.151 110.47 22.759C110.932 22.367 111.624 22.424 112.015 22.886C112.407 23.347 112.35 24.039 111.888 24.431Z" fill="#7EDEF9"/>
<path id="Vector_85" d="M105.155 17.407C104.76 17.866 104.068 17.918 103.609 17.523C103.15 17.128 103.098 16.436 103.493 15.977C103.888 15.518 104.58 15.466 105.039 15.861C105.498 16.256 105.55 16.948 105.155 17.407Z" fill="#7EDEF9"/>
<path id="Vector_86" d="M97.406 11.523C97.088 12.038 96.412 12.198 95.897 11.88C95.382 11.562 95.222 10.886 95.54 10.371C95.858 9.85597 96.534 9.69598 97.049 10.014C97.565 10.332 97.724 11.008 97.406 11.523Z" fill="#7EDEF9"/>
<path id="Vector_87" d="M88.832 6.92402C88.598 7.48302 87.956 7.746 87.398 7.512C86.839 7.278 86.576 6.63601 86.81 6.07801C87.044 5.51901 87.686 5.256 88.244 5.49C88.803 5.723 89.066 6.36502 88.832 6.92402Z" fill="#7EDEF9"/>
<path id="Vector_88" d="M79.645 3.72297C79.502 4.31097 78.909 4.67197 78.32 4.52897C77.732 4.38597 77.371 3.79298 77.514 3.20398C77.657 2.61598 78.25 2.25496 78.839 2.39896C79.427 2.54096 79.788 3.13397 79.645 3.72297Z" fill="#7EDEF9"/>
</g>
<path id="Vector_89" d="M63.86 68.085C63.668 68.085 63.475 68.072 63.28 68.047C62.09 67.893 61.03 67.285 60.298 66.335C59.565 65.385 59.247 64.206 59.401 63.016C59.719 60.559 61.982 58.815 64.432 59.137C66.889 59.455 68.629 61.712 68.311 64.169C68.019 66.431 66.082 68.085 63.86 68.085ZM63.854 59.448C61.803 59.448 60.016 60.974 59.746 63.061C59.604 64.159 59.898 65.246 60.573 66.123C61.249 67 62.226 67.561 63.324 67.703C65.585 67.993 67.673 66.392 67.965 64.126C68.259 61.859 66.653 59.777 64.387 59.484C64.208 59.459 64.03 59.448 63.854 59.448Z" fill="#7EDEF9"/>
<g id="Group_4">
<g id="Outer Spinner2">
<path id="Vector_90" d="M63.925 113.039H63.9C61.759 113.039 59.604 112.9 57.495 112.626L58.714 103.234C60.421 103.455 62.166 103.568 63.901 103.568H63.949L63.925 113.039ZM70.361 112.619L69.132 103.228C70.853 103.003 72.572 102.662 74.244 102.214L76.694 111.363C74.623 111.918 72.492 112.34 70.361 112.619ZM51.161 111.378C49.085 110.825 47.026 110.127 45.04 109.305L48.662 100.554C50.264 101.217 51.925 101.78 53.6 102.226L51.161 111.378ZM82.808 109.285L79.177 100.538C80.775 99.875 82.346 99.098 83.846 98.229L88.591 106.425C86.733 107.502 84.787 108.464 82.808 109.285ZM39.249 106.448C37.392 105.375 35.587 104.169 33.884 102.861L39.65 95.348C41.027 96.405 42.487 97.381 43.987 98.248L39.249 106.448ZM93.949 102.837L88.177 95.328C89.552 94.271 90.871 93.113 92.098 91.886L98.795 98.582C97.279 100.099 95.649 101.531 93.949 102.837ZM29.032 98.61C27.514 97.095 26.082 95.465 24.775 93.766L32.281 87.99C33.339 89.364 34.497 90.683 35.725 91.909L29.032 98.61ZM103.05 93.734L95.54 87.963C96.598 86.587 97.574 85.128 98.442 83.628L106.64 88.37C105.566 90.227 104.358 92.032 103.05 93.734ZM21.183 88.409C20.107 86.552 19.144 84.607 18.321 82.628L27.066 78.991C27.73 80.589 28.508 82.159 29.377 83.659L21.183 88.409ZM16.239 76.515C15.683 74.445 15.26 72.314 14.98 70.184L24.37 68.95C24.596 70.671 24.938 72.39 25.387 74.061L16.239 76.515ZM24.027 63.745H14.556V63.695C14.556 61.563 14.694 59.418 14.965 57.317L24.358 58.53C24.139 60.23 24.027 61.967 24.027 63.695V63.745ZM25.363 53.417L16.21 50.983C16.762 48.907 17.458 46.847 18.279 44.861L27.032 48.478C26.37 50.081 25.808 51.742 25.363 53.417Z" fill="#7EDEF9"/>
<path id="Vector_91" d="M114.8 63.709C114.8 35.732 92.039 12.971 64.062 12.971C49.947 12.971 36.358 18.921 26.778 29.295L29.278 31.604C30.939 29.805 32.755 28.121 34.673 26.6L39.167 32.267C37.54 33.557 36 34.985 34.592 36.511L37.092 38.82C44.022 31.315 53.852 27.011 64.061 27.011C84.296 27.011 100.76 43.474 100.76 63.71C100.76 66.752 100.388 69.774 99.655 72.691L102.956 73.521C103.452 71.549 103.799 69.519 103.989 67.485L111.19 68.157C110.966 70.557 110.556 72.956 109.97 75.285L113.271 76.115C114.286 72.077 114.8 67.904 114.8 63.709ZM44.341 28.782L40.779 22.488C42.914 21.28 45.159 20.231 47.452 19.372L49.99 26.145C48.05 26.871 46.149 27.759 44.341 28.782ZM55.98 24.421L54.531 17.335C56.924 16.846 59.381 16.54 61.835 16.426L62.17 23.651C60.09 23.747 58.007 24.006 55.98 24.421ZM74.537 24.988C72.538 24.448 70.477 24.062 68.41 23.84L69.185 16.649C71.625 16.912 74.059 17.368 76.421 18.005L74.537 24.988ZM85.89 30.061C84.147 28.928 82.304 27.925 80.412 27.079L83.364 20.476C85.599 21.475 87.775 22.66 89.832 23.998L85.89 30.061ZM90.841 33.858L95.672 28.476C97.494 30.111 99.203 31.902 100.751 33.799L95.148 38.372C93.835 36.764 92.386 35.245 90.841 33.858ZM101.421 49.101C100.666 47.172 99.752 45.286 98.704 43.494L104.947 39.843C106.184 41.959 107.264 44.187 108.156 46.465L101.421 49.101ZM104.09 61.239C103.964 59.161 103.675 57.084 103.231 55.063L110.295 53.511C110.819 55.897 111.16 58.349 111.309 60.8L104.09 61.239Z" fill="url(#paint5_linear_1_46)"/>
</g>
</g>
<path id="Vector_92" d="M58.889 65.138L59.704 64.789C59.704 64.789 60.373 67.146 62.643 67.67C62.614 68.019 62.468 68.456 62.468 68.456C62.468 68.456 59.966 68.281 58.889 65.138Z" fill="#7EDEF9"/>
<path id="Vector_93" d="M67.221 67.521L66.593 66.896C66.593 66.896 68.529 65.394 68.166 63.093C68.501 62.989 68.96 62.961 68.96 62.961C68.96 62.961 69.734 65.348 67.221 67.521Z" fill="#7EDEF9"/>
<path id="Vector_94" d="M65.084 58.532L64.953 59.409C64.953 59.409 62.596 58.74 60.957 60.397C60.675 60.189 60.38 59.836 60.38 59.836C60.38 59.836 61.844 57.797 65.084 58.532Z" fill="#7EDEF9"/>
</g>
<defs>
<linearGradient id="paint0_linear_1_46" x1="34.9229" y1="108.516" x2="91.9651" y2="20.2853" gradientUnits="userSpaceOnUse">
<stop stop-color="#63A4FB"/>
<stop offset="1" stop-color="#8FFFFF"/>
</linearGradient>
<linearGradient id="paint1_linear_1_46" x1="24.6077" y1="101.847" x2="81.6497" y2="13.6165" gradientUnits="userSpaceOnUse">
<stop stop-color="#63A4FB"/>
<stop offset="1" stop-color="#8FFFFF"/>
</linearGradient>
<linearGradient id="paint2_linear_1_46" x1="23.7945" y1="101.322" x2="80.8367" y2="13.091" gradientUnits="userSpaceOnUse">
<stop stop-color="#63A4FB"/>
<stop offset="1" stop-color="#8FFFFF"/>
</linearGradient>
<linearGradient id="paint3_linear_1_46" x1="44.4304" y1="114.663" x2="101.472" y2="26.4321" gradientUnits="userSpaceOnUse">
<stop stop-color="#63A4FB"/>
<stop offset="1" stop-color="#8FFFFF"/>
</linearGradient>
<linearGradient id="paint4_linear_1_46" x1="42.6319" y1="113.5" x2="99.6737" y2="25.2693" gradientUnits="userSpaceOnUse">
<stop stop-color="#63A4FB"/>
<stop offset="1" stop-color="#8FFFFF"/>
</linearGradient>
<linearGradient id="paint5_linear_1_46" x1="34.231" y1="108.068" x2="91.2729" y2="19.838" gradientUnits="userSpaceOnUse">
<stop stop-color="#63A4FB"/>
<stop offset="1" stop-color="#8FFFFF"/>
</linearGradient>
</defs>
</svg>
